<mxfile host="app.diagrams.net" agent="Mozilla/5.0 (Windows NT 10.0; Win64; x64) AppleWebKit/537.36 (KHTML, like Gecko) Chrome/131.0.0.0 Safari/537.36" version="25.0.1" pages="2">
  <diagram name="collector" id="uigpwwjzt3T1p5udmavG">
    <mxGraphModel dx="1764" dy="991" grid="1" gridSize="10" guides="1" tooltips="1" connect="1" arrows="1" fold="1" page="1" pageScale="1" pageWidth="1169" pageHeight="827" background="none" math="0" shadow="1">
      <root>
        <mxCell id="0" />
        <mxCell id="1" parent="0" />
        <mxCell id="5m87ZB2yBZsC5MAy124T-28" value="" style="rounded=0;whiteSpace=wrap;html=1;verticalAlign=top;" parent="1" vertex="1">
          <mxGeometry x="80" y="170" width="409" height="450" as="geometry" />
        </mxCell>
        <mxCell id="5m87ZB2yBZsC5MAy124T-2" value="Connector" style="whiteSpace=wrap;html=1;aspect=fixed;rounded=0;" parent="1" vertex="1">
          <mxGeometry x="125" y="510" width="90" height="90" as="geometry" />
        </mxCell>
        <mxCell id="Kd3xXfbBogCMq_-z4xH8-58" style="orthogonalLoop=1;jettySize=auto;html=1;exitX=0.5;exitY=1;exitDx=0;exitDy=0;startArrow=classic;startFill=1;" edge="1" parent="1" source="5m87ZB2yBZsC5MAy124T-3" target="5m87ZB2yBZsC5MAy124T-2">
          <mxGeometry relative="1" as="geometry" />
        </mxCell>
        <mxCell id="5m87ZB2yBZsC5MAy124T-3" value="Service" style="ellipse;whiteSpace=wrap;html=1;rounded=0;" parent="1" vertex="1">
          <mxGeometry x="112.75" y="370" width="120" height="80" as="geometry" />
        </mxCell>
        <mxCell id="5m87ZB2yBZsC5MAy124T-42" value="Resource" style="ellipse;shape=cloud;whiteSpace=wrap;html=1;" parent="1" vertex="1">
          <mxGeometry x="112.75" y="630" width="141.5" height="100" as="geometry" />
        </mxCell>
        <mxCell id="5m87ZB2yBZsC5MAy124T-43" value="" style="endArrow=classic;startArrow=classic;html=1;entryX=0.5;entryY=1;entryDx=0;entryDy=0;exitX=0.4;exitY=0.1;exitDx=0;exitDy=0;exitPerimeter=0;" parent="1" source="5m87ZB2yBZsC5MAy124T-42" target="5m87ZB2yBZsC5MAy124T-2" edge="1">
          <mxGeometry width="50" height="50" relative="1" as="geometry">
            <mxPoint x="22.75" y="520" as="sourcePoint" />
            <mxPoint x="72.75" y="470" as="targetPoint" />
          </mxGeometry>
        </mxCell>
        <mxCell id="Kd3xXfbBogCMq_-z4xH8-59" style="orthogonalLoop=1;jettySize=auto;html=1;entryX=0.5;entryY=0;entryDx=0;entryDy=0;startArrow=classic;startFill=1;" edge="1" parent="1" source="5m87ZB2yBZsC5MAy124T-51" target="5m87ZB2yBZsC5MAy124T-61">
          <mxGeometry relative="1" as="geometry" />
        </mxCell>
        <mxCell id="5m87ZB2yBZsC5MAy124T-51" value="Service" style="ellipse;whiteSpace=wrap;html=1;rounded=0;" parent="1" vertex="1">
          <mxGeometry x="326.25" y="370" width="120" height="80" as="geometry" />
        </mxCell>
        <mxCell id="5m87ZB2yBZsC5MAy124T-61" value="Service" style="ellipse;whiteSpace=wrap;html=1;rounded=0;" parent="1" vertex="1">
          <mxGeometry x="326.25" y="510" width="120" height="80" as="geometry" />
        </mxCell>
        <mxCell id="Kd3xXfbBogCMq_-z4xH8-3" style="edgeStyle=orthogonalEdgeStyle;orthogonalLoop=1;jettySize=auto;html=1;exitX=0.5;exitY=1;exitDx=0;exitDy=0;entryX=0.5;entryY=0;entryDx=0;entryDy=0;startArrow=classic;startFill=1;" edge="1" parent="1" source="Kd3xXfbBogCMq_-z4xH8-1" target="5m87ZB2yBZsC5MAy124T-3">
          <mxGeometry relative="1" as="geometry" />
        </mxCell>
        <mxCell id="Kd3xXfbBogCMq_-z4xH8-4" style="edgeStyle=orthogonalEdgeStyle;orthogonalLoop=1;jettySize=auto;html=1;exitX=0.5;exitY=1;exitDx=0;exitDy=0;entryX=0.5;entryY=0;entryDx=0;entryDy=0;startArrow=classic;startFill=1;" edge="1" parent="1" source="Kd3xXfbBogCMq_-z4xH8-1" target="5m87ZB2yBZsC5MAy124T-51">
          <mxGeometry relative="1" as="geometry" />
        </mxCell>
        <mxCell id="Kd3xXfbBogCMq_-z4xH8-1" value="API" style="rounded=0;whiteSpace=wrap;html=1;" vertex="1" parent="1">
          <mxGeometry x="120" y="240" width="330" height="60" as="geometry" />
        </mxCell>
        <mxCell id="Kd3xXfbBogCMq_-z4xH8-13" value="Client" style="rhombus;whiteSpace=wrap;html=1;" vertex="1" parent="1">
          <mxGeometry x="232.37" y="40" width="104.25" height="100" as="geometry" />
        </mxCell>
        <mxCell id="Kd3xXfbBogCMq_-z4xH8-15" value="" style="endArrow=classic;html=1;entryX=0.5;entryY=0;entryDx=0;entryDy=0;exitX=0.5;exitY=1;exitDx=0;exitDy=0;startArrow=classic;startFill=1;" edge="1" parent="1" source="Kd3xXfbBogCMq_-z4xH8-13" target="Kd3xXfbBogCMq_-z4xH8-1">
          <mxGeometry width="50" height="50" relative="1" as="geometry">
            <mxPoint x="370" y="210" as="sourcePoint" />
            <mxPoint x="259.3399999999999" y="170" as="targetPoint" />
          </mxGeometry>
        </mxCell>
        <mxCell id="Kd3xXfbBogCMq_-z4xH8-17" value="" style="rounded=0;whiteSpace=wrap;html=1;verticalAlign=top;" vertex="1" parent="1">
          <mxGeometry x="680" y="170" width="409" height="450" as="geometry" />
        </mxCell>
        <mxCell id="Kd3xXfbBogCMq_-z4xH8-18" value="" style="rounded=1;whiteSpace=wrap;html=1;fillColor=#d5e8d4;strokeColor=#82b366;" vertex="1" parent="1">
          <mxGeometry x="699.5" y="170" width="370" height="100" as="geometry" />
        </mxCell>
        <mxCell id="Kd3xXfbBogCMq_-z4xH8-19" value="" style="rounded=1;whiteSpace=wrap;html=1;fillColor=#d5e8d4;strokeColor=#82b366;points=[[0,0,0,0,0],[0,0.25,0,0,0],[0,0.5,0,0,0],[0,0.75,0,0,0],[0,1,0,0,0],[0.15,0.02,0,0,0],[0.25,1,0,0,0],[0.5,0,0,0,0],[0.5,1,0,0,0],[0.75,0,0,0,0],[0.75,1,0,0,0],[1,0,0,0,0],[1,0.25,0,0,0],[1,0.5,0,0,0],[1,0.75,0,0,0],[1,1,0,0,0]];" vertex="1" parent="1">
          <mxGeometry x="699.75" y="450" width="370" height="110" as="geometry" />
        </mxCell>
        <mxCell id="Kd3xXfbBogCMq_-z4xH8-20" value="Connector" style="whiteSpace=wrap;html=1;aspect=fixed;rounded=0;" vertex="1" parent="1">
          <mxGeometry x="725.25" y="520" width="90" height="90" as="geometry" />
        </mxCell>
        <mxCell id="Kd3xXfbBogCMq_-z4xH8-21" value="Service" style="ellipse;whiteSpace=wrap;html=1;rounded=0;" vertex="1" parent="1">
          <mxGeometry x="716" y="340" width="120" height="80" as="geometry" />
        </mxCell>
        <mxCell id="Kd3xXfbBogCMq_-z4xH8-22" value="start" style="text;html=1;align=center;verticalAlign=middle;whiteSpace=wrap;rounded=0;fontSize=10;" vertex="1" parent="1">
          <mxGeometry x="713.5" y="504" width="45" height="20" as="geometry" />
        </mxCell>
        <mxCell id="Kd3xXfbBogCMq_-z4xH8-23" value="end" style="text;html=1;align=center;verticalAlign=middle;whiteSpace=wrap;rounded=0;fontSize=10;" vertex="1" parent="1">
          <mxGeometry x="786.5" y="504" width="45" height="20" as="geometry" />
        </mxCell>
        <mxCell id="Kd3xXfbBogCMq_-z4xH8-24" value="params" style="text;html=1;align=center;verticalAlign=middle;whiteSpace=wrap;rounded=0;fontSize=10;" vertex="1" parent="1">
          <mxGeometry x="719.25" y="448" width="52.5" height="30" as="geometry" />
        </mxCell>
        <mxCell id="Kd3xXfbBogCMq_-z4xH8-25" value="&lt;span style=&quot;background-color: initial;&quot;&gt;result&lt;/span&gt;&lt;div&gt;error&lt;/div&gt;" style="text;html=1;align=left;verticalAlign=middle;whiteSpace=wrap;rounded=0;fontSize=10;" vertex="1" parent="1">
          <mxGeometry x="800.25" y="472" width="44.5" height="30" as="geometry" />
        </mxCell>
        <mxCell id="Kd3xXfbBogCMq_-z4xH8-26" value="" style="curved=1;endArrow=classic;html=1;rounded=0;entryX=0;entryY=0;entryDx=0;entryDy=0;fillColor=#d5e8d4;strokeColor=#82b366;exitX=0.25;exitY=0;exitDx=0;exitDy=0;" edge="1" parent="1" target="Kd3xXfbBogCMq_-z4xH8-20" source="Kd3xXfbBogCMq_-z4xH8-19">
          <mxGeometry width="50" height="50" relative="1" as="geometry">
            <mxPoint x="776.25" y="450" as="sourcePoint" />
            <mxPoint x="724.5" y="515" as="targetPoint" />
            <Array as="points">
              <mxPoint x="700.25" y="450" />
              <mxPoint x="760.25" y="500" />
              <mxPoint x="700.25" y="490" />
            </Array>
          </mxGeometry>
        </mxCell>
        <mxCell id="Kd3xXfbBogCMq_-z4xH8-27" value="" style="curved=1;endArrow=classic;html=1;rounded=0;exitX=1;exitY=0;exitDx=0;exitDy=0;entryX=0.25;entryY=0;entryDx=0;entryDy=0;fillColor=#d5e8d4;strokeColor=#82b366;" edge="1" parent="1" source="Kd3xXfbBogCMq_-z4xH8-20" target="Kd3xXfbBogCMq_-z4xH8-19">
          <mxGeometry width="50" height="50" relative="1" as="geometry">
            <mxPoint x="821.63" y="520" as="sourcePoint" />
            <mxPoint x="809.875" y="451.5" as="targetPoint" />
            <Array as="points">
              <mxPoint x="833.88" y="515.1800000000001" />
              <mxPoint x="802.25" y="500" />
              <mxPoint x="781.25" y="490" />
              <mxPoint x="802.63" y="475.18000000000006" />
              <mxPoint x="815.25" y="460" />
            </Array>
          </mxGeometry>
        </mxCell>
        <mxCell id="Kd3xXfbBogCMq_-z4xH8-28" value="" style="endArrow=classic;html=1;exitX=0.5;exitY=1;exitDx=0;exitDy=0;entryX=0.25;entryY=0;entryDx=0;entryDy=0;startArrow=classic;startFill=1;" edge="1" parent="1" source="Kd3xXfbBogCMq_-z4xH8-21" target="Kd3xXfbBogCMq_-z4xH8-19">
          <mxGeometry width="50" height="50" relative="1" as="geometry">
            <mxPoint x="773" y="420.0000000000001" as="sourcePoint" />
            <mxPoint x="730.6249999999998" y="451.5" as="targetPoint" />
          </mxGeometry>
        </mxCell>
        <mxCell id="Kd3xXfbBogCMq_-z4xH8-30" value="Resource" style="ellipse;shape=cloud;whiteSpace=wrap;html=1;" vertex="1" parent="1">
          <mxGeometry x="712.75" y="630" width="141.5" height="100" as="geometry" />
        </mxCell>
        <mxCell id="Kd3xXfbBogCMq_-z4xH8-31" value="" style="endArrow=classic;startArrow=classic;html=1;entryX=0.5;entryY=1;entryDx=0;entryDy=0;exitX=0.4;exitY=0.1;exitDx=0;exitDy=0;exitPerimeter=0;" edge="1" parent="1" source="Kd3xXfbBogCMq_-z4xH8-30" target="Kd3xXfbBogCMq_-z4xH8-20">
          <mxGeometry width="50" height="50" relative="1" as="geometry">
            <mxPoint x="622.75" y="520" as="sourcePoint" />
            <mxPoint x="672.75" y="470" as="targetPoint" />
          </mxGeometry>
        </mxCell>
        <mxCell id="Kd3xXfbBogCMq_-z4xH8-32" value="Service" style="ellipse;whiteSpace=wrap;html=1;rounded=0;" vertex="1" parent="1">
          <mxGeometry x="930" y="340" width="120" height="80" as="geometry" />
        </mxCell>
        <mxCell id="Kd3xXfbBogCMq_-z4xH8-33" value="start" style="text;html=1;align=center;verticalAlign=middle;whiteSpace=wrap;rounded=0;fontSize=10;" vertex="1" parent="1">
          <mxGeometry x="931.5" y="507" width="45" height="20" as="geometry" />
        </mxCell>
        <mxCell id="Kd3xXfbBogCMq_-z4xH8-34" value="end" style="text;html=1;align=center;verticalAlign=middle;whiteSpace=wrap;rounded=0;fontSize=10;" vertex="1" parent="1">
          <mxGeometry x="1005.25" y="512" width="45" height="20" as="geometry" />
        </mxCell>
        <mxCell id="Kd3xXfbBogCMq_-z4xH8-35" value="params" style="text;html=1;align=center;verticalAlign=middle;whiteSpace=wrap;rounded=0;fontSize=10;" vertex="1" parent="1">
          <mxGeometry x="941.25" y="448" width="52.5" height="30" as="geometry" />
        </mxCell>
        <mxCell id="Kd3xXfbBogCMq_-z4xH8-36" value="&lt;span style=&quot;background-color: initial;&quot;&gt;result&lt;/span&gt;&lt;div&gt;error&lt;/div&gt;" style="text;html=1;align=left;verticalAlign=middle;whiteSpace=wrap;rounded=0;fontSize=10;" vertex="1" parent="1">
          <mxGeometry x="1019.5" y="474" width="44.25" height="30" as="geometry" />
        </mxCell>
        <mxCell id="Kd3xXfbBogCMq_-z4xH8-37" value="" style="curved=1;endArrow=classic;html=1;rounded=0;exitX=0.75;exitY=0;exitDx=0;exitDy=0;entryX=0;entryY=0;entryDx=0;entryDy=0;fillColor=#d5e8d4;strokeColor=#82b366;" edge="1" parent="1" target="Kd3xXfbBogCMq_-z4xH8-41" source="Kd3xXfbBogCMq_-z4xH8-19">
          <mxGeometry width="50" height="50" relative="1" as="geometry">
            <mxPoint x="944.6249999999998" y="451.5" as="sourcePoint" />
            <mxPoint x="939.25" y="520" as="targetPoint" />
            <Array as="points">
              <mxPoint x="928.25" y="459.82" />
              <mxPoint x="980.25" y="490" />
              <mxPoint x="909.25" y="490" />
            </Array>
          </mxGeometry>
        </mxCell>
        <mxCell id="Kd3xXfbBogCMq_-z4xH8-38" value="" style="curved=1;endArrow=classic;html=1;rounded=0;exitX=1;exitY=0;exitDx=0;exitDy=0;entryX=0.75;entryY=0;entryDx=0;entryDy=0;fillColor=#d5e8d4;strokeColor=#82b366;" edge="1" parent="1" source="Kd3xXfbBogCMq_-z4xH8-41" target="Kd3xXfbBogCMq_-z4xH8-19">
          <mxGeometry width="50" height="50" relative="1" as="geometry">
            <mxPoint x="1029.25" y="520" as="sourcePoint" />
            <mxPoint x="1023.875" y="451.5" as="targetPoint" />
            <Array as="points">
              <mxPoint x="1070.25" y="510" />
              <mxPoint x="1000.25" y="500" />
              <mxPoint x="1016.63" y="475.18000000000006" />
              <mxPoint x="1050.25" y="460" />
            </Array>
          </mxGeometry>
        </mxCell>
        <mxCell id="Kd3xXfbBogCMq_-z4xH8-40" value="" style="endArrow=classic;html=1;exitX=0.5;exitY=1;exitDx=0;exitDy=0;entryX=0.75;entryY=0;entryDx=0;entryDy=0;startArrow=classic;startFill=1;endFill=1;" edge="1" parent="1" source="Kd3xXfbBogCMq_-z4xH8-32" target="Kd3xXfbBogCMq_-z4xH8-19">
          <mxGeometry width="50" height="50" relative="1" as="geometry">
            <mxPoint x="987.0000000000002" y="420.0000000000001" as="sourcePoint" />
            <mxPoint x="1024" y="452" as="targetPoint" />
          </mxGeometry>
        </mxCell>
        <mxCell id="Kd3xXfbBogCMq_-z4xH8-41" value="Service" style="ellipse;whiteSpace=wrap;html=1;rounded=0;" vertex="1" parent="1">
          <mxGeometry x="926.5" y="520" width="120" height="80" as="geometry" />
        </mxCell>
        <mxCell id="Kd3xXfbBogCMq_-z4xH8-42" value="" style="html=1;verticalLabelPosition=bottom;align=center;labelBackgroundColor=#ffffff;verticalAlign=top;strokeWidth=2;strokeColor=#82b366;shadow=0;dashed=0;shape=mxgraph.ios7.icons.clock;fillColor=#d5e8d4;" vertex="1" parent="1">
          <mxGeometry x="976.5" y="502" width="30" height="30" as="geometry" />
        </mxCell>
        <mxCell id="Kd3xXfbBogCMq_-z4xH8-43" value="" style="html=1;verticalLabelPosition=bottom;align=center;labelBackgroundColor=#ffffff;verticalAlign=top;strokeWidth=2;strokeColor=#82b366;shadow=0;dashed=0;shape=mxgraph.ios7.icons.clock;fillColor=#d5e8d4;" vertex="1" parent="1">
          <mxGeometry x="758" y="502" width="30" height="30" as="geometry" />
        </mxCell>
        <mxCell id="Kd3xXfbBogCMq_-z4xH8-44" style="edgeStyle=orthogonalEdgeStyle;orthogonalLoop=1;jettySize=auto;html=1;exitX=0.5;exitY=1;exitDx=0;exitDy=0;entryX=1;entryY=0;entryDx=0;entryDy=0;startArrow=classic;startFill=1;" edge="1" parent="1" source="Kd3xXfbBogCMq_-z4xH8-46" target="Kd3xXfbBogCMq_-z4xH8-21">
          <mxGeometry relative="1" as="geometry" />
        </mxCell>
        <mxCell id="Kd3xXfbBogCMq_-z4xH8-45" style="edgeStyle=orthogonalEdgeStyle;orthogonalLoop=1;jettySize=auto;html=1;exitX=0.5;exitY=1;exitDx=0;exitDy=0;entryX=0;entryY=0;entryDx=0;entryDy=0;startArrow=classic;startFill=1;" edge="1" parent="1" source="Kd3xXfbBogCMq_-z4xH8-46" target="Kd3xXfbBogCMq_-z4xH8-32">
          <mxGeometry relative="1" as="geometry" />
        </mxCell>
        <mxCell id="Kd3xXfbBogCMq_-z4xH8-46" value="API" style="rounded=0;whiteSpace=wrap;html=1;" vertex="1" parent="1">
          <mxGeometry x="720" y="240" width="330" height="60" as="geometry" />
        </mxCell>
        <mxCell id="Kd3xXfbBogCMq_-z4xH8-47" value="" style="curved=1;endArrow=classic;html=1;rounded=0;entryX=0;entryY=0;entryDx=0;entryDy=0;fillColor=#d5e8d4;strokeColor=#82b366;exitX=0.5;exitY=0;exitDx=0;exitDy=0;" edge="1" parent="1" source="Kd3xXfbBogCMq_-z4xH8-18">
          <mxGeometry width="50" height="50" relative="1" as="geometry">
            <mxPoint x="860" y="170" as="sourcePoint" />
            <mxPoint x="850" y="240" as="targetPoint" />
            <Array as="points">
              <mxPoint x="820" y="170" />
              <mxPoint x="870.25" y="219.82" />
              <mxPoint x="800" y="210" />
            </Array>
          </mxGeometry>
        </mxCell>
        <mxCell id="Kd3xXfbBogCMq_-z4xH8-48" value="" style="curved=1;endArrow=classic;html=1;rounded=0;exitX=0.25;exitY=0;exitDx=0;exitDy=0;entryX=0.5;entryY=0;entryDx=0;entryDy=0;fillColor=#d5e8d4;strokeColor=#82b366;" edge="1" parent="1" target="Kd3xXfbBogCMq_-z4xH8-18">
          <mxGeometry width="50" height="50" relative="1" as="geometry">
            <mxPoint x="914.8750000000002" y="240" as="sourcePoint" />
            <mxPoint x="920.25" y="171.5" as="targetPoint" />
            <Array as="points">
              <mxPoint x="931.25" y="231.68" />
              <mxPoint x="880" y="200" />
              <mxPoint x="960" y="180" />
            </Array>
          </mxGeometry>
        </mxCell>
        <mxCell id="Kd3xXfbBogCMq_-z4xH8-49" value="" style="html=1;verticalLabelPosition=bottom;align=center;labelBackgroundColor=#ffffff;verticalAlign=top;strokeWidth=2;strokeColor=#82b366;shadow=0;dashed=0;shape=mxgraph.ios7.icons.clock;fillColor=#d5e8d4;" vertex="1" parent="1">
          <mxGeometry x="869.5" y="220" width="30" height="30" as="geometry" />
        </mxCell>
        <mxCell id="Kd3xXfbBogCMq_-z4xH8-50" value="start" style="text;html=1;align=center;verticalAlign=middle;whiteSpace=wrap;rounded=0;fontSize=10;" vertex="1" parent="1">
          <mxGeometry x="800.25" y="223" width="45" height="20" as="geometry" />
        </mxCell>
        <mxCell id="Kd3xXfbBogCMq_-z4xH8-51" value="end" style="text;html=1;align=center;verticalAlign=middle;whiteSpace=wrap;rounded=0;fontSize=10;" vertex="1" parent="1">
          <mxGeometry x="910" y="223" width="45" height="20" as="geometry" />
        </mxCell>
        <mxCell id="Kd3xXfbBogCMq_-z4xH8-52" value="params" style="text;html=1;align=center;verticalAlign=middle;whiteSpace=wrap;rounded=0;fontSize=10;" vertex="1" parent="1">
          <mxGeometry x="804.25" y="190" width="52.5" height="30" as="geometry" />
        </mxCell>
        <mxCell id="Kd3xXfbBogCMq_-z4xH8-53" value="&lt;span style=&quot;background-color: initial;&quot;&gt;result&lt;/span&gt;&lt;div&gt;error&lt;/div&gt;" style="text;html=1;align=left;verticalAlign=middle;whiteSpace=wrap;rounded=0;fontSize=10;" vertex="1" parent="1">
          <mxGeometry x="906.37" y="190" width="30.25" height="30" as="geometry" />
        </mxCell>
        <mxCell id="Kd3xXfbBogCMq_-z4xH8-54" value="Client" style="rhombus;whiteSpace=wrap;html=1;" vertex="1" parent="1">
          <mxGeometry x="832.37" y="40" width="104.25" height="100" as="geometry" />
        </mxCell>
        <mxCell id="Kd3xXfbBogCMq_-z4xH8-55" value="" style="endArrow=classic;html=1;exitX=0.5;exitY=1;exitDx=0;exitDy=0;startArrow=classic;startFill=1;" edge="1" parent="1" source="Kd3xXfbBogCMq_-z4xH8-54" target="Kd3xXfbBogCMq_-z4xH8-18">
          <mxGeometry width="50" height="50" relative="1" as="geometry">
            <mxPoint x="970" y="210" as="sourcePoint" />
            <mxPoint x="1020" y="160" as="targetPoint" />
          </mxGeometry>
        </mxCell>
        <mxCell id="Kd3xXfbBogCMq_-z4xH8-64" value="" style="aspect=fixed;sketch=0;html=1;dashed=0;whitespace=wrap;verticalLabelPosition=bottom;verticalAlign=top;fillColor=#000000;strokeColor=#ffffff;points=[[0.005,0.63,0],[0.1,0.2,0],[0.9,0.2,0],[0.5,0,0],[0.995,0.63,0],[0.72,0.99,0],[0.5,1,0],[0.28,0.99,0]];shape=mxgraph.kubernetes.icon2;prIcon=api" vertex="1" parent="1">
          <mxGeometry x="215" y="246" width="50" height="48" as="geometry" />
        </mxCell>
        <mxCell id="Kd3xXfbBogCMq_-z4xH8-65" value="" style="aspect=fixed;sketch=0;html=1;dashed=0;whitespace=wrap;verticalLabelPosition=bottom;verticalAlign=top;fillColor=#000000;strokeColor=#ffffff;points=[[0.005,0.63,0],[0.1,0.2,0],[0.9,0.2,0],[0.5,0,0],[0.995,0.63,0],[0.72,0.99,0],[0.5,1,0],[0.28,0.99,0]];shape=mxgraph.kubernetes.icon2;prIcon=api" vertex="1" parent="1">
          <mxGeometry x="819.5" y="246" width="50" height="48" as="geometry" />
        </mxCell>
      </root>
    </mxGraphModel>
  </diagram>
  <diagram id="DATNXKUMJaB3XZp_IE49" name="buffer">
    <mxGraphModel dx="1323" dy="687" grid="1" gridSize="10" guides="1" tooltips="1" connect="1" arrows="1" fold="1" page="1" pageScale="1" pageWidth="1169" pageHeight="827" math="0" shadow="0">
      <root>
        <mxCell id="0" />
        <mxCell id="1" parent="0" />
        <mxCell id="pbjLLM7L7Xr9Xz930BvR-3" value="" style="rounded=0;whiteSpace=wrap;html=1;rotation=-90;" vertex="1" parent="1">
          <mxGeometry x="150" y="10" width="190" height="221" as="geometry" />
        </mxCell>
        <mxCell id="pbjLLM7L7Xr9Xz930BvR-4" value="BUFFER" style="rounded=0;whiteSpace=wrap;html=1;fillColor=#d5e8d4;strokeColor=#82b366;" vertex="1" parent="1">
          <mxGeometry x="237.5" y="34.129999999999995" width="110" height="62" as="geometry" />
        </mxCell>
        <mxCell id="pbjLLM7L7Xr9Xz930BvR-5" value="&lt;span&gt;SERVER&lt;/span&gt;" style="text;html=1;align=center;verticalAlign=middle;whiteSpace=wrap;rounded=0;fontStyle=1" vertex="1" parent="1">
          <mxGeometry x="215" y="188.5" width="60" height="30" as="geometry" />
        </mxCell>
        <mxCell id="pbjLLM7L7Xr9Xz930BvR-6" value="BDD" style="shape=cylinder3;whiteSpace=wrap;html=1;boundedLbl=1;backgroundOutline=1;size=15;" vertex="1" parent="1">
          <mxGeometry x="760" y="219.5" width="80" height="105" as="geometry" />
        </mxCell>
        <mxCell id="pbjLLM7L7Xr9Xz930BvR-7" value="" style="points=[[0.25,0.25,0],[0.5,0,0],[0.75,0.25,0],[1,0.5,0],[0.75,0.75,0],[0.5,1,0],[0.25,0.75,0],[0,0.5,0]];shape=mxgraph.bpmn.gateway2;html=1;verticalLabelPosition=bottom;labelBackgroundColor=#ffffff;verticalAlign=top;align=center;perimeter=rhombusPerimeter;outlineConnect=0;outline=catching;symbol=timer;fillColor=#000000;strokeColor=#FFFFFF;fontColor=#333333;" vertex="1" parent="1">
          <mxGeometry x="310" y="76.38" width="37.5" height="38.5" as="geometry" />
        </mxCell>
        <mxCell id="pbjLLM7L7Xr9Xz930BvR-8" value="" style="rounded=0;whiteSpace=wrap;html=1;rotation=-90;" vertex="1" parent="1">
          <mxGeometry x="476" y="119.25" width="190" height="221" as="geometry" />
        </mxCell>
        <mxCell id="pbjLLM7L7Xr9Xz930BvR-9" value="BUFFER" style="rounded=0;whiteSpace=wrap;html=1;fillColor=#d5e8d4;strokeColor=#82b366;" vertex="1" parent="1">
          <mxGeometry x="563.5" y="143.5" width="110" height="62" as="geometry" />
        </mxCell>
        <mxCell id="pbjLLM7L7Xr9Xz930BvR-10" value="INSPECT" style="text;html=1;align=center;verticalAlign=middle;whiteSpace=wrap;rounded=0;fontStyle=1" vertex="1" parent="1">
          <mxGeometry x="541" y="297.75" width="60" height="30" as="geometry" />
        </mxCell>
        <mxCell id="pbjLLM7L7Xr9Xz930BvR-11" value="" style="points=[[0.25,0.25,0],[0.5,0,0],[0.75,0.25,0],[1,0.5,0],[0.75,0.75,0],[0.5,1,0],[0.25,0.75,0],[0,0.5,0]];shape=mxgraph.bpmn.gateway2;html=1;verticalLabelPosition=bottom;labelBackgroundColor=#ffffff;verticalAlign=top;align=center;perimeter=rhombusPerimeter;outlineConnect=0;outline=catching;symbol=timer;fillColor=#000000;strokeColor=#FFFFFF;fontColor=#333333;" vertex="1" parent="1">
          <mxGeometry x="636" y="185.5" width="37.5" height="38.5" as="geometry" />
        </mxCell>
        <mxCell id="pbjLLM7L7Xr9Xz930BvR-12" value="" style="endArrow=classic;startArrow=classic;html=1;rounded=0;entryX=0.005;entryY=0.63;entryDx=0;entryDy=0;entryPerimeter=0;" edge="1" parent="1" target="pbjLLM7L7Xr9Xz930BvR-15">
          <mxGeometry width="50" height="50" relative="1" as="geometry">
            <mxPoint x="30" y="135.5" as="sourcePoint" />
            <mxPoint x="150" y="129.30882352941182" as="targetPoint" />
          </mxGeometry>
        </mxCell>
        <mxCell id="pbjLLM7L7Xr9Xz930BvR-13" value="HTTP" style="edgeLabel;html=1;align=center;verticalAlign=middle;resizable=0;points=[];" vertex="1" connectable="0" parent="pbjLLM7L7Xr9Xz930BvR-12">
          <mxGeometry x="0.2156" y="-1" relative="1" as="geometry">
            <mxPoint as="offset" />
          </mxGeometry>
        </mxCell>
        <mxCell id="pbjLLM7L7Xr9Xz930BvR-14" value="" style="endArrow=none;dashed=1;html=1;rounded=0;entryX=0;entryY=0.75;entryDx=0;entryDy=0;exitX=0.9;exitY=0.2;exitDx=0;exitDy=0;exitPerimeter=0;" edge="1" parent="1" source="pbjLLM7L7Xr9Xz930BvR-15" target="pbjLLM7L7Xr9Xz930BvR-4">
          <mxGeometry width="50" height="50" relative="1" as="geometry">
            <mxPoint x="202" y="106.2479674796748" as="sourcePoint" />
            <mxPoint x="480" y="158.5" as="targetPoint" />
          </mxGeometry>
        </mxCell>
        <mxCell id="pbjLLM7L7Xr9Xz930BvR-15" value="" style="aspect=fixed;sketch=0;html=1;dashed=0;whitespace=wrap;verticalLabelPosition=bottom;verticalAlign=top;fillColor=#000000;strokeColor=#ffffff;points=[[0.005,0.63,0],[0.1,0.2,0],[0.9,0.2,0],[0.5,0,0],[0.995,0.63,0],[0.72,0.99,0],[0.5,1,0],[0.28,0.99,0]];shape=mxgraph.kubernetes.icon2;prIcon=api" vertex="1" parent="1">
          <mxGeometry x="150" y="105.5" width="50" height="48" as="geometry" />
        </mxCell>
        <mxCell id="pbjLLM7L7Xr9Xz930BvR-16" value="" style="aspect=fixed;sketch=0;html=1;dashed=0;whitespace=wrap;verticalLabelPosition=bottom;verticalAlign=top;fillColor=#000000;strokeColor=#ffffff;points=[[0.005,0.63,0],[0.1,0.2,0],[0.9,0.2,0],[0.5,0,0],[0.995,0.63,0],[0.72,0.99,0],[0.5,1,0],[0.28,0.99,0]];shape=mxgraph.kubernetes.icon2;prIcon=api" vertex="1" parent="1">
          <mxGeometry x="470" y="185.25" width="50" height="48" as="geometry" />
        </mxCell>
        <mxCell id="pbjLLM7L7Xr9Xz930BvR-17" value="" style="endArrow=none;dashed=1;html=1;rounded=0;exitX=0.995;exitY=0.63;exitDx=0;exitDy=0;exitPerimeter=0;entryX=0;entryY=0.5;entryDx=0;entryDy=0;" edge="1" parent="1" source="pbjLLM7L7Xr9Xz930BvR-16" target="pbjLLM7L7Xr9Xz930BvR-9">
          <mxGeometry width="50" height="50" relative="1" as="geometry">
            <mxPoint x="221" y="234.75" as="sourcePoint" />
            <mxPoint x="264" y="193.75" as="targetPoint" />
          </mxGeometry>
        </mxCell>
        <mxCell id="pbjLLM7L7Xr9Xz930BvR-18" value="" style="endArrow=classic;startArrow=none;html=1;rounded=0;entryX=0.005;entryY=0.63;entryDx=0;entryDy=0;entryPerimeter=0;exitX=1;exitY=1;exitDx=0;exitDy=0;startFill=0;" edge="1" parent="1" source="pbjLLM7L7Xr9Xz930BvR-4" target="pbjLLM7L7Xr9Xz930BvR-16">
          <mxGeometry width="50" height="50" relative="1" as="geometry">
            <mxPoint x="-20" y="145.5" as="sourcePoint" />
            <mxPoint x="160" y="145.5" as="targetPoint" />
          </mxGeometry>
        </mxCell>
        <mxCell id="pbjLLM7L7Xr9Xz930BvR-19" value="HTTP" style="edgeLabel;html=1;align=center;verticalAlign=middle;resizable=0;points=[];" vertex="1" connectable="0" parent="pbjLLM7L7Xr9Xz930BvR-18">
          <mxGeometry x="0.2156" y="-1" relative="1" as="geometry">
            <mxPoint x="-1" y="-7" as="offset" />
          </mxGeometry>
        </mxCell>
        <mxCell id="pbjLLM7L7Xr9Xz930BvR-20" value="" style="aspect=fixed;sketch=0;html=1;dashed=0;whitespace=wrap;verticalLabelPosition=bottom;verticalAlign=top;fillColor=#000000;strokeColor=#ffffff;points=[[0.005,0.63,0],[0.1,0.2,0],[0.9,0.2,0],[0.5,0,0],[0.995,0.63,0],[0.72,0.99,0],[0.5,1,0],[0.28,0.99,0]];shape=mxgraph.kubernetes.icon2;prIcon=api" vertex="1" parent="1">
          <mxGeometry x="150" y="153.5" width="50" height="48" as="geometry" />
        </mxCell>
        <mxCell id="pbjLLM7L7Xr9Xz930BvR-21" value="" style="aspect=fixed;sketch=0;html=1;dashed=0;whitespace=wrap;verticalLabelPosition=bottom;verticalAlign=top;fillColor=#000000;strokeColor=#ffffff;points=[[0.005,0.63,0],[0.1,0.2,0],[0.9,0.2,0],[0.5,0,0],[0.995,0.63,0],[0.72,0.99,0],[0.5,1,0],[0.28,0.99,0]];shape=mxgraph.kubernetes.icon2;prIcon=api" vertex="1" parent="1">
          <mxGeometry x="150" y="50.5" width="50" height="48" as="geometry" />
        </mxCell>
        <mxCell id="pbjLLM7L7Xr9Xz930BvR-22" value="" style="endArrow=classic;startArrow=classic;html=1;rounded=0;entryX=0.005;entryY=0.63;entryDx=0;entryDy=0;entryPerimeter=0;" edge="1" parent="1" target="pbjLLM7L7Xr9Xz930BvR-21">
          <mxGeometry width="50" height="50" relative="1" as="geometry">
            <mxPoint x="30" y="80.5" as="sourcePoint" />
            <mxPoint x="160" y="145.5" as="targetPoint" />
          </mxGeometry>
        </mxCell>
        <mxCell id="pbjLLM7L7Xr9Xz930BvR-23" value="HTTP" style="edgeLabel;html=1;align=center;verticalAlign=middle;resizable=0;points=[];" vertex="1" connectable="0" parent="pbjLLM7L7Xr9Xz930BvR-22">
          <mxGeometry x="0.2156" y="-1" relative="1" as="geometry">
            <mxPoint as="offset" />
          </mxGeometry>
        </mxCell>
        <mxCell id="pbjLLM7L7Xr9Xz930BvR-24" value="" style="endArrow=classic;startArrow=classic;html=1;rounded=0;entryX=0.005;entryY=0.63;entryDx=0;entryDy=0;entryPerimeter=0;" edge="1" parent="1" target="pbjLLM7L7Xr9Xz930BvR-20">
          <mxGeometry width="50" height="50" relative="1" as="geometry">
            <mxPoint x="30" y="183.5" as="sourcePoint" />
            <mxPoint x="160" y="145.5" as="targetPoint" />
          </mxGeometry>
        </mxCell>
        <mxCell id="pbjLLM7L7Xr9Xz930BvR-25" value="HTTP" style="edgeLabel;html=1;align=center;verticalAlign=middle;resizable=0;points=[];" vertex="1" connectable="0" parent="pbjLLM7L7Xr9Xz930BvR-24">
          <mxGeometry x="0.2156" y="-1" relative="1" as="geometry">
            <mxPoint as="offset" />
          </mxGeometry>
        </mxCell>
        <mxCell id="pbjLLM7L7Xr9Xz930BvR-26" value="" style="endArrow=none;dashed=1;html=1;rounded=0;entryX=0;entryY=0.75;entryDx=0;entryDy=0;exitX=0.995;exitY=0.63;exitDx=0;exitDy=0;exitPerimeter=0;" edge="1" parent="1" source="pbjLLM7L7Xr9Xz930BvR-20" target="pbjLLM7L7Xr9Xz930BvR-4">
          <mxGeometry width="50" height="50" relative="1" as="geometry">
            <mxPoint x="205" y="125.5" as="sourcePoint" />
            <mxPoint x="248" y="84.5" as="targetPoint" />
          </mxGeometry>
        </mxCell>
        <mxCell id="pbjLLM7L7Xr9Xz930BvR-27" value="" style="endArrow=none;dashed=1;html=1;rounded=0;entryX=0.995;entryY=0.63;entryDx=0;entryDy=0;entryPerimeter=0;" edge="1" parent="1" source="pbjLLM7L7Xr9Xz930BvR-4" target="pbjLLM7L7Xr9Xz930BvR-21">
          <mxGeometry width="50" height="50" relative="1" as="geometry">
            <mxPoint x="210" y="193.5" as="sourcePoint" />
            <mxPoint x="248" y="84.5" as="targetPoint" />
          </mxGeometry>
        </mxCell>
        <mxCell id="pbjLLM7L7Xr9Xz930BvR-28" value="" style="sketch=0;pointerEvents=1;shadow=0;dashed=0;html=1;strokeColor=none;fillColor=#000000;aspect=fixed;labelPosition=center;verticalLabelPosition=bottom;verticalAlign=top;align=center;outlineConnect=0;shape=mxgraph.vvd.memory;" vertex="1" parent="1">
          <mxGeometry x="237.5" y="34.129999999999995" width="50" height="19" as="geometry" />
        </mxCell>
        <mxCell id="pbjLLM7L7Xr9Xz930BvR-29" value="" style="sketch=0;pointerEvents=1;shadow=0;dashed=0;html=1;strokeColor=none;fillColor=#000000;aspect=fixed;labelPosition=center;verticalLabelPosition=bottom;verticalAlign=top;align=center;outlineConnect=0;shape=mxgraph.vvd.memory;" vertex="1" parent="1">
          <mxGeometry x="563.5" y="143.5" width="50" height="19" as="geometry" />
        </mxCell>
        <mxCell id="pbjLLM7L7Xr9Xz930BvR-30" value="" style="endArrow=classic;startArrow=none;html=1;rounded=0;entryX=0;entryY=0.5;entryDx=0;entryDy=0;entryPerimeter=0;exitX=1;exitY=0.5;exitDx=0;exitDy=0;exitPerimeter=0;startFill=0;edgeStyle=orthogonalEdgeStyle;curved=1;" edge="1" parent="1" source="pbjLLM7L7Xr9Xz930BvR-11" target="pbjLLM7L7Xr9Xz930BvR-6">
          <mxGeometry width="50" height="50" relative="1" as="geometry">
            <mxPoint x="673.5" y="213.75" as="sourcePoint" />
            <mxPoint x="785.5" y="214.75" as="targetPoint" />
          </mxGeometry>
        </mxCell>
        <mxCell id="pbjLLM7L7Xr9Xz930BvR-31" value="JDBC" style="edgeLabel;html=1;align=center;verticalAlign=middle;resizable=0;points=[];" vertex="1" connectable="0" parent="pbjLLM7L7Xr9Xz930BvR-30">
          <mxGeometry x="0.2156" y="-1" relative="1" as="geometry">
            <mxPoint x="-9" as="offset" />
          </mxGeometry>
        </mxCell>
        <mxCell id="pbjLLM7L7Xr9Xz930BvR-32" value="" style="rounded=0;whiteSpace=wrap;html=1;rotation=-90;" vertex="1" parent="1">
          <mxGeometry x="150" y="238.5" width="190" height="221" as="geometry" />
        </mxCell>
        <mxCell id="pbjLLM7L7Xr9Xz930BvR-33" value="" style="sketch=0;pointerEvents=1;shadow=0;dashed=0;html=1;strokeColor=none;fillColor=#000000;labelPosition=center;verticalLabelPosition=bottom;verticalAlign=top;outlineConnect=0;align=center;shape=mxgraph.office.concepts.web_page;" vertex="1" parent="1">
          <mxGeometry x="140" y="258.5" width="50" height="54" as="geometry" />
        </mxCell>
        <mxCell id="pbjLLM7L7Xr9Xz930BvR-34" value="" style="sketch=0;pointerEvents=1;shadow=0;dashed=0;html=1;strokeColor=none;fillColor=#000000;labelPosition=center;verticalLabelPosition=bottom;verticalAlign=top;outlineConnect=0;align=center;shape=mxgraph.office.concepts.web_page;" vertex="1" parent="1">
          <mxGeometry x="140" y="312.5" width="50" height="54" as="geometry" />
        </mxCell>
        <mxCell id="pbjLLM7L7Xr9Xz930BvR-35" value="BROWSER" style="text;html=1;align=center;verticalAlign=middle;whiteSpace=wrap;rounded=0;fontStyle=1" vertex="1" parent="1">
          <mxGeometry x="210" y="418.5" width="60" height="30" as="geometry" />
        </mxCell>
        <mxCell id="pbjLLM7L7Xr9Xz930BvR-36" value="" style="sketch=0;pointerEvents=1;shadow=0;dashed=0;html=1;strokeColor=none;fillColor=#000000;labelPosition=center;verticalLabelPosition=bottom;verticalAlign=top;outlineConnect=0;align=center;shape=mxgraph.office.concepts.web_page;" vertex="1" parent="1">
          <mxGeometry x="140" y="368.5" width="50" height="54" as="geometry" />
        </mxCell>
        <mxCell id="pbjLLM7L7Xr9Xz930BvR-37" value="" style="curved=1;endArrow=none;html=1;rounded=0;endFill=0;startArrow=classic;startFill=1;" edge="1" parent="1">
          <mxGeometry width="50" height="50" relative="1" as="geometry">
            <mxPoint x="130" y="328.5" as="sourcePoint" />
            <mxPoint x="130" y="278.5" as="targetPoint" />
            <Array as="points">
              <mxPoint x="130" y="328.5" />
              <mxPoint x="80" y="278.5" />
            </Array>
          </mxGeometry>
        </mxCell>
        <mxCell id="pbjLLM7L7Xr9Xz930BvR-38" value="Route 2" style="edgeLabel;html=1;align=center;verticalAlign=middle;resizable=0;points=[];" vertex="1" connectable="0" parent="pbjLLM7L7Xr9Xz930BvR-37">
          <mxGeometry x="-0.4241" y="-1" relative="1" as="geometry">
            <mxPoint as="offset" />
          </mxGeometry>
        </mxCell>
        <mxCell id="pbjLLM7L7Xr9Xz930BvR-39" value="" style="curved=1;endArrow=none;html=1;rounded=0;endFill=0;startArrow=classic;startFill=1;" edge="1" parent="1">
          <mxGeometry width="50" height="50" relative="1" as="geometry">
            <mxPoint x="130" y="388.5" as="sourcePoint" />
            <mxPoint x="130" y="338.5" as="targetPoint" />
            <Array as="points">
              <mxPoint x="130" y="388.5" />
              <mxPoint x="80" y="338.5" />
            </Array>
          </mxGeometry>
        </mxCell>
        <mxCell id="pbjLLM7L7Xr9Xz930BvR-40" value="Route .." style="edgeLabel;html=1;align=center;verticalAlign=middle;resizable=0;points=[];" vertex="1" connectable="0" parent="pbjLLM7L7Xr9Xz930BvR-39">
          <mxGeometry x="-0.3186" y="-7" relative="1" as="geometry">
            <mxPoint as="offset" />
          </mxGeometry>
        </mxCell>
        <mxCell id="pbjLLM7L7Xr9Xz930BvR-41" value="BUFFER" style="rounded=0;whiteSpace=wrap;html=1;fillColor=#d5e8d4;strokeColor=#82b366;" vertex="1" parent="1">
          <mxGeometry x="237.5" y="259.5" width="110" height="62" as="geometry" />
        </mxCell>
        <mxCell id="pbjLLM7L7Xr9Xz930BvR-42" value="" style="points=[[0.25,0.25,0],[0.5,0,0],[0.75,0.25,0],[1,0.5,0],[0.75,0.75,0],[0.5,1,0],[0.25,0.75,0],[0,0.5,0]];shape=mxgraph.bpmn.gateway2;html=1;verticalLabelPosition=bottom;labelBackgroundColor=#ffffff;verticalAlign=top;align=center;perimeter=rhombusPerimeter;outlineConnect=0;outline=catching;symbol=timer;fillColor=#000000;strokeColor=#FFFFFF;fontColor=#333333;" vertex="1" parent="1">
          <mxGeometry x="310" y="301.75" width="37.5" height="38.5" as="geometry" />
        </mxCell>
        <mxCell id="pbjLLM7L7Xr9Xz930BvR-43" value="" style="sketch=0;pointerEvents=1;shadow=0;dashed=0;html=1;strokeColor=none;fillColor=#000000;aspect=fixed;labelPosition=center;verticalLabelPosition=bottom;verticalAlign=top;align=center;outlineConnect=0;shape=mxgraph.vvd.memory;" vertex="1" parent="1">
          <mxGeometry x="237.5" y="259.5" width="50" height="19" as="geometry" />
        </mxCell>
        <mxCell id="pbjLLM7L7Xr9Xz930BvR-44" value="" style="endArrow=classic;startArrow=none;html=1;rounded=0;entryX=0.005;entryY=0.63;entryDx=0;entryDy=0;entryPerimeter=0;startFill=0;exitX=1;exitY=0.5;exitDx=0;exitDy=0;exitPerimeter=0;" edge="1" parent="1" source="pbjLLM7L7Xr9Xz930BvR-42" target="pbjLLM7L7Xr9Xz930BvR-16">
          <mxGeometry width="50" height="50" relative="1" as="geometry">
            <mxPoint x="340" y="330.5" as="sourcePoint" />
            <mxPoint x="490" y="251.5" as="targetPoint" />
          </mxGeometry>
        </mxCell>
        <mxCell id="pbjLLM7L7Xr9Xz930BvR-45" value="HTTP" style="edgeLabel;html=1;align=center;verticalAlign=middle;resizable=0;points=[];" vertex="1" connectable="0" parent="pbjLLM7L7Xr9Xz930BvR-44">
          <mxGeometry x="0.2156" y="-1" relative="1" as="geometry">
            <mxPoint x="-2" y="2" as="offset" />
          </mxGeometry>
        </mxCell>
        <mxCell id="pbjLLM7L7Xr9Xz930BvR-46" value="" style="endArrow=none;dashed=1;html=1;rounded=0;exitX=0;exitY=0.5;exitDx=0;exitDy=0;" edge="1" parent="1" source="pbjLLM7L7Xr9Xz930BvR-41" target="pbjLLM7L7Xr9Xz930BvR-33">
          <mxGeometry width="50" height="50" relative="1" as="geometry">
            <mxPoint x="210" y="193.5" as="sourcePoint" />
            <mxPoint x="248" y="90.5" as="targetPoint" />
          </mxGeometry>
        </mxCell>
        <mxCell id="pbjLLM7L7Xr9Xz930BvR-47" value="" style="endArrow=none;dashed=1;html=1;rounded=0;exitX=0;exitY=0.5;exitDx=0;exitDy=0;" edge="1" parent="1" source="pbjLLM7L7Xr9Xz930BvR-41" target="pbjLLM7L7Xr9Xz930BvR-34">
          <mxGeometry width="50" height="50" relative="1" as="geometry">
            <mxPoint x="248" y="300.5" as="sourcePoint" />
            <mxPoint x="200" y="297.5" as="targetPoint" />
          </mxGeometry>
        </mxCell>
        <mxCell id="pbjLLM7L7Xr9Xz930BvR-48" value="" style="endArrow=none;dashed=1;html=1;rounded=0;exitX=0;exitY=0.5;exitDx=0;exitDy=0;" edge="1" parent="1" source="pbjLLM7L7Xr9Xz930BvR-41" target="pbjLLM7L7Xr9Xz930BvR-36">
          <mxGeometry width="50" height="50" relative="1" as="geometry">
            <mxPoint x="248" y="300.5" as="sourcePoint" />
            <mxPoint x="200" y="332.5" as="targetPoint" />
          </mxGeometry>
        </mxCell>
        <mxCell id="pbjLLM7L7Xr9Xz930BvR-49" value="RestSession" style="text;html=1;align=center;verticalAlign=middle;whiteSpace=wrap;rounded=0;" vertex="1" parent="1">
          <mxGeometry x="197.5" y="105.5" width="95" height="30" as="geometry" />
        </mxCell>
        <mxCell id="pbjLLM7L7Xr9Xz930BvR-50" value="MainSession" style="text;html=1;align=center;verticalAlign=middle;whiteSpace=wrap;rounded=0;" vertex="1" parent="1">
          <mxGeometry x="197.5" y="324.5" width="95" height="30" as="geometry" />
        </mxCell>
        <mxCell id="pbjLLM7L7Xr9Xz930BvR-51" value="Session" style="text;html=1;align=center;verticalAlign=middle;whiteSpace=wrap;rounded=0;" vertex="1" parent="1">
          <mxGeometry x="518.5" y="201" width="95" height="30" as="geometry" />
        </mxCell>
        <mxCell id="pbjLLM7L7Xr9Xz930BvR-58" value="" style="curved=1;endArrow=none;html=1;rounded=0;endFill=0;startArrow=classic;startFill=1;" edge="1" parent="1">
          <mxGeometry width="50" height="50" relative="1" as="geometry">
            <mxPoint x="130" y="274" as="sourcePoint" />
            <mxPoint x="130" y="224" as="targetPoint" />
            <Array as="points">
              <mxPoint x="130" y="274" />
              <mxPoint x="80" y="224" />
            </Array>
          </mxGeometry>
        </mxCell>
        <mxCell id="pbjLLM7L7Xr9Xz930BvR-59" value="Route 1" style="edgeLabel;html=1;align=center;verticalAlign=middle;resizable=0;points=[];" vertex="1" connectable="0" parent="pbjLLM7L7Xr9Xz930BvR-58">
          <mxGeometry x="-0.4534" y="1" relative="1" as="geometry">
            <mxPoint as="offset" />
          </mxGeometry>
        </mxCell>
        <mxCell id="pbjLLM7L7Xr9Xz930BvR-61" value="" style="verticalLabelPosition=bottom;html=1;verticalAlign=top;align=center;strokeColor=none;fillColor=#000000;shape=mxgraph.azure.automation;pointerEvents=1;" vertex="1" parent="1">
          <mxGeometry x="302" y="168.5" width="42.5" height="37" as="geometry" />
        </mxCell>
        <mxCell id="pbjLLM7L7Xr9Xz930BvR-62" value="" style="endArrow=none;dashed=1;html=1;rounded=0;entryX=0;entryY=0.75;entryDx=0;entryDy=0;exitX=0.23;exitY=0.41;exitDx=0;exitDy=0;exitPerimeter=0;" edge="1" parent="1" source="pbjLLM7L7Xr9Xz930BvR-61" target="pbjLLM7L7Xr9Xz930BvR-4">
          <mxGeometry width="50" height="50" relative="1" as="geometry">
            <mxPoint x="210" y="193.5" as="sourcePoint" />
            <mxPoint x="248" y="90.5" as="targetPoint" />
          </mxGeometry>
        </mxCell>
        <mxCell id="pbjLLM7L7Xr9Xz930BvR-63" value="" style="curved=1;endArrow=none;html=1;rounded=0;endFill=0;startArrow=classic;startFill=1;" edge="1" parent="1">
          <mxGeometry width="50" height="50" relative="1" as="geometry">
            <mxPoint x="354.5" y="201.5" as="sourcePoint" />
            <mxPoint x="347" y="178.5" as="targetPoint" />
            <Array as="points">
              <mxPoint x="340" y="208.5" />
              <mxPoint x="354.5" y="201.5" />
              <mxPoint x="385" y="184.5" />
            </Array>
          </mxGeometry>
        </mxCell>
        <mxCell id="pbjLLM7L7Xr9Xz930BvR-64" value="AutoRun" style="edgeLabel;html=1;align=center;verticalAlign=middle;resizable=0;points=[];" vertex="1" connectable="0" parent="pbjLLM7L7Xr9Xz930BvR-63">
          <mxGeometry x="-0.4399" y="2" relative="1" as="geometry">
            <mxPoint x="8" as="offset" />
          </mxGeometry>
        </mxCell>
        <mxCell id="pbjLLM7L7Xr9Xz930BvR-65" value="MainSession" style="text;html=1;align=center;verticalAlign=middle;whiteSpace=wrap;rounded=0;" vertex="1" parent="1">
          <mxGeometry x="237.5" y="153.5" width="95" height="30" as="geometry" />
        </mxCell>
        <mxCell id="OXWFJR7iE9jTB6SQXzQ9-1" value="" style="rounded=1;whiteSpace=wrap;html=1;dashed=1;dashPattern=8 8;" vertex="1" parent="1">
          <mxGeometry x="420" y="440" width="710" height="300" as="geometry" />
        </mxCell>
        <mxCell id="OXWFJR7iE9jTB6SQXzQ9-2" value="" style="triangle;whiteSpace=wrap;html=1;fillColor=default;strokeColor=#000000;fontColor=#333333;rotation=90;" vertex="1" parent="1">
          <mxGeometry x="809.4200000000001" y="616" width="40" height="50" as="geometry" />
        </mxCell>
        <mxCell id="OXWFJR7iE9jTB6SQXzQ9-3" value="" style="triangle;whiteSpace=wrap;html=1;fillColor=default;strokeColor=#000000;fontColor=#333333;rotation=90;" vertex="1" parent="1">
          <mxGeometry x="808.9200000000001" y="600" width="40" height="50" as="geometry" />
        </mxCell>
        <mxCell id="OXWFJR7iE9jTB6SQXzQ9-4" value="" style="triangle;whiteSpace=wrap;html=1;fillColor=#ffffff;strokeColor=#000000;fontColor=#333333;" vertex="1" parent="1">
          <mxGeometry x="531.17" y="541" width="40" height="50" as="geometry" />
        </mxCell>
        <mxCell id="OXWFJR7iE9jTB6SQXzQ9-5" value="" style="triangle;whiteSpace=wrap;html=1;fillColor=#ffffff;strokeColor=#000000;fontColor=#333333;" vertex="1" parent="1">
          <mxGeometry x="510.16999999999996" y="541" width="40" height="50" as="geometry" />
        </mxCell>
        <mxCell id="OXWFJR7iE9jTB6SQXzQ9-6" value="BUFFER" style="rounded=1;whiteSpace=wrap;html=1;fillColor=#d5e8d4;strokeColor=#82b366;" vertex="1" parent="1">
          <mxGeometry x="570.17" y="537" width="540" height="60" as="geometry" />
        </mxCell>
        <mxCell id="OXWFJR7iE9jTB6SQXzQ9-7" value="" style="sketch=0;pointerEvents=1;shadow=0;dashed=0;html=1;strokeColor=none;fillColor=#000000;aspect=fixed;labelPosition=center;verticalLabelPosition=bottom;verticalAlign=top;align=center;outlineConnect=0;shape=mxgraph.vvd.memory;" vertex="1" parent="1">
          <mxGeometry x="574.17" y="541" width="50" height="19" as="geometry" />
        </mxCell>
        <mxCell id="OXWFJR7iE9jTB6SQXzQ9-8" value="" style="endArrow=none;dashed=1;html=1;dashPattern=1 3;strokeWidth=2;rounded=0;exitX=0.25;exitY=1;exitDx=0;exitDy=0;strokeColor=#000000;" edge="1" parent="1" source="OXWFJR7iE9jTB6SQXzQ9-6">
          <mxGeometry width="50" height="50" relative="1" as="geometry">
            <mxPoint x="650.1700000000001" y="417" as="sourcePoint" />
            <mxPoint x="705.1700000000001" y="467" as="targetPoint" />
          </mxGeometry>
        </mxCell>
        <mxCell id="OXWFJR7iE9jTB6SQXzQ9-9" value="bufferSize" style="edgeLabel;html=1;align=center;verticalAlign=middle;resizable=0;points=[];" vertex="1" connectable="0" parent="OXWFJR7iE9jTB6SQXzQ9-8">
          <mxGeometry x="0.3385" y="2" relative="1" as="geometry">
            <mxPoint as="offset" />
          </mxGeometry>
        </mxCell>
        <mxCell id="OXWFJR7iE9jTB6SQXzQ9-10" value="" style="endArrow=none;dashed=1;html=1;dashPattern=1 3;strokeWidth=2;rounded=0;exitX=0.25;exitY=1;exitDx=0;exitDy=0;strokeColor=default;" edge="1" parent="1">
          <mxGeometry width="50" height="50" relative="1" as="geometry">
            <mxPoint x="1070.17" y="597" as="sourcePoint" />
            <mxPoint x="1070.17" y="467" as="targetPoint" />
          </mxGeometry>
        </mxCell>
        <mxCell id="OXWFJR7iE9jTB6SQXzQ9-11" value="bufferMaxSize" style="edgeLabel;html=1;align=center;verticalAlign=middle;resizable=0;points=[];" vertex="1" connectable="0" parent="OXWFJR7iE9jTB6SQXzQ9-10">
          <mxGeometry x="0.4923" y="5" relative="1" as="geometry">
            <mxPoint as="offset" />
          </mxGeometry>
        </mxCell>
        <mxCell id="OXWFJR7iE9jTB6SQXzQ9-12" value="" style="html=1;verticalLabelPosition=bottom;align=center;labelBackgroundColor=#ffffff;verticalAlign=top;strokeWidth=2;strokeColor=#f00000;shadow=0;dashed=0;shape=mxgraph.ios7.icons.delete;" vertex="1" parent="1">
          <mxGeometry x="1076.17" y="552" width="30" height="30" as="geometry" />
        </mxCell>
        <mxCell id="OXWFJR7iE9jTB6SQXzQ9-13" value="" style="shape=curlyBracket;whiteSpace=wrap;html=1;rounded=1;flipH=1;labelPosition=right;verticalLabelPosition=middle;align=left;verticalAlign=middle;rotation=90;fillColor=default;" vertex="1" parent="1">
          <mxGeometry x="821.1700000000001" y="350" width="28" height="510" as="geometry" />
        </mxCell>
        <mxCell id="OXWFJR7iE9jTB6SQXzQ9-16" value="Sessions" style="text;html=1;align=center;verticalAlign=middle;whiteSpace=wrap;rounded=0;" vertex="1" parent="1">
          <mxGeometry x="450.17" y="541" width="60" height="30" as="geometry" />
        </mxCell>
        <mxCell id="OXWFJR7iE9jTB6SQXzQ9-17" value="" style="points=[[0.25,0.25,0],[0.5,0,0],[0.75,0.25,0],[1,0.5,0],[0.75,0.75,0],[0.5,1,0],[0.25,0.75,0],[0,0.5,0]];shape=mxgraph.bpmn.gateway2;html=1;verticalLabelPosition=bottom;labelBackgroundColor=#ffffff;verticalAlign=top;align=center;perimeter=rhombusPerimeter;outlineConnect=0;outline=catching;symbol=timer;fillColor=#ffffff;strokeColor=#000000;fontColor=#333333;" vertex="1" parent="1">
          <mxGeometry x="811.4200000000001" y="585.75" width="37.5" height="38.5" as="geometry" />
        </mxCell>
        <mxCell id="OXWFJR7iE9jTB6SQXzQ9-18" value="DISPATCHER" style="text;html=1;align=center;verticalAlign=middle;whiteSpace=wrap;rounded=0;" vertex="1" parent="1">
          <mxGeometry x="860.1700000000001" y="614.07" width="90" height="21.87" as="geometry" />
        </mxCell>
        <mxCell id="OXWFJR7iE9jTB6SQXzQ9-19" value="" style="sketch=0;outlineConnect=0;fontColor=#232F3E;gradientColor=none;fillColor=#000000;strokeColor=none;dashed=0;verticalLabelPosition=bottom;verticalAlign=top;align=center;html=1;fontSize=12;fontStyle=0;aspect=fixed;pointerEvents=1;shape=mxgraph.aws4.magnifying_glass_2;" vertex="1" parent="1">
          <mxGeometry x="432.17" y="453" width="47" height="47" as="geometry" />
        </mxCell>
        <mxCell id="OXWFJR7iE9jTB6SQXzQ9-20" value="" style="html=1;shadow=0;dashed=0;align=center;verticalAlign=middle;shape=mxgraph.arrows2.jumpInArrow;dy=15;dx=38;arrowHead=55;rotation=-124;fillColor=#fad9d5;strokeColor=#ae4132;" vertex="1" parent="1">
          <mxGeometry x="558.81" y="535.9200000000001" width="230.58" height="217.75" as="geometry" />
        </mxCell>
      </root>
    </mxGraphModel>
  </diagram>
</mxfile>
